<svg width="379" height="388" viewBox="0 0 379 388" fill="none" xmlns="http://www.w3.org/2000/svg">
<path opacity="0.1" d="M364.038 186.633C358.039 186.382 352.811 190.978 351.264 197.364C341.965 197.98 331.348 198.098 319.706 197.212C313.231 196.708 307.078 195.948 301.327 195.029C301.372 193.909 301.402 192.777 301.416 191.645C301.484 186.138 301.151 180.72 300.482 175.415C303.447 173.174 307.147 170.825 311.625 168.829C319.378 165.338 326.608 164.153 332.183 163.855C334.835 170.174 341.063 173.908 347.084 172.389C353.874 170.68 357.847 162.977 355.931 155.182C354.031 147.385 347.004 142.439 340.215 144.148C334.034 145.712 330.186 152.247 330.994 159.299C326.091 162.046 318.808 165 309.835 165.114C305.412 165.178 301.541 164.528 298.406 163.713C296.512 155.467 293.752 147.554 290.188 140.08C294.094 136.589 298.704 132.894 304.096 129.338C311.901 124.174 319.417 120.504 326.01 117.882C330.226 123.007 337.02 124.777 342.325 121.753C348.418 118.287 350.214 109.781 346.357 102.774C342.5 95.7686 334.41 92.9089 328.317 96.3845C323.028 99.3981 320.965 106.214 323.059 112.539C317.37 116.904 310.386 121.501 302.019 125.574C296.334 128.359 290.896 130.463 285.976 132.053C282.053 125.2 277.455 118.797 272.258 112.941C274.377 105.513 277.899 96.8514 283.832 88.195C289.407 80.1019 295.545 74.2199 300.751 70.0959C306.39 73.7398 313.547 73.2729 317.675 68.6168C322.369 63.3431 321.421 54.7094 315.533 49.3303C309.676 43.9386 301.121 43.8434 296.443 49.1189C292.315 53.775 292.546 61.0326 296.711 66.3776C293.306 71.9282 288.177 78.8007 280.69 85.315C272.429 92.5026 264.172 96.7658 257.883 99.2838C250.832 93.665 243.133 88.8751 234.895 85.0599C236.133 81.6886 237.771 78.301 239.903 74.9779C241.612 72.3438 243.444 70.0308 245.288 68.013C251.561 70.6964 258.655 68.9084 261.898 63.4872C265.548 57.4335 263.032 49.1212 256.283 44.935C249.534 40.7472 241.118 42.2593 237.468 48.3243C234.274 53.6537 235.832 60.7249 240.837 65.1979C239.749 68.0164 238.436 70.9376 236.867 73.9124C235.085 77.3355 233.163 80.4861 231.132 83.3968C230.29 83.0443 229.464 82.7048 228.622 82.388C218.804 78.5161 208.315 76.0178 197.359 75.0806C195.616 70.1286 194.119 64.6461 193.091 58.6324C191.007 46.3615 191.553 35.7106 192.688 27.7204C199.152 26.5443 204.035 21.4628 204.111 15.3021C204.198 8.20239 197.868 2.36852 189.967 2.27165C182.051 2.17458 175.564 7.85129 175.477 14.951C175.4 21.2171 180.332 26.4903 186.926 27.7098C188.265 35.6152 189.072 46.667 186.712 59.4382C185.654 65.0597 184.138 70.1762 182.389 74.8032C171.864 75.2758 161.735 77.213 152.15 80.4171C150.851 78.257 149.682 75.9915 148.645 73.3238C146.602 68.0405 145.753 63.1027 145.436 58.997C151.653 55.8051 154.913 48.9892 152.817 42.8991C150.505 36.2015 142.579 32.9303 135.108 35.5959C127.652 38.2618 123.472 45.8512 125.801 52.5507C127.805 58.3298 133.975 61.5471 140.42 60.6092C142.255 64.5584 144.003 69.1066 145.345 74.2661C146.078 76.9983 146.604 79.668 147.003 82.2777C138.293 85.6596 130.113 90.1087 122.577 95.4611C118.686 92.5248 114.705 89.1234 110.778 85.147C101.744 75.9908 95.7602 66.6401 91.8451 59.1621C96.3434 54.2283 97.2132 47.0961 93.5546 42.1303C89.362 36.4477 80.8302 35.7494 74.4975 40.5683C68.1807 45.389 66.4481 53.9007 70.6247 59.5816C74.3465 64.6016 81.4205 65.7231 87.3972 62.5915C93.1106 67.9279 100.526 76.3246 106.19 88.3346C108.788 93.8274 110.575 99.1595 111.823 104.127C110.612 105.231 109.385 106.37 108.205 107.533C102.307 113.402 97.0066 119.916 92.4503 126.978C89.8262 126.176 87.1083 125.21 84.3292 124.034C75.2929 120.207 68.3122 115.384 63.2553 111.195C65.5047 104.803 63.4668 97.8519 58.1088 94.7825C52.0376 91.2939 43.9572 94.1403 40.0721 101.14C36.171 108.136 37.9505 116.637 44.0537 120.124C49.3957 123.191 56.2824 121.358 60.5131 116.116C66.6793 118.368 74.3616 121.954 82.2558 127.784C84.613 129.526 86.7621 131.314 88.7675 133.11C82.3213 144.575 77.7596 157.279 75.5027 170.797C70.0542 171.203 64.1779 171.358 57.8757 171.082C48.8772 170.692 40.766 169.52 33.6805 168.038C33.6077 160.953 29.0199 154.967 22.7076 154.215C15.7577 153.387 9.3811 159.186 8.45316 167.166C7.54118 175.146 12.4183 182.284 19.3522 183.109C25.537 183.845 31.2434 179.328 33.0966 172.702C40.3729 172.941 48.5368 173.703 57.3762 175.36C63.508 176.507 69.1574 177.944 74.39 179.528C74.0969 182.601 73.947 185.71 73.9085 188.856C73.8169 196.327 74.4136 203.641 75.6675 210.741C69.5846 214.719 61.2284 219.213 50.6067 222.311C41.2987 225.027 32.9393 225.888 26.2811 226.014C23.9642 219.686 18.0748 215.684 12.043 216.789C5.17928 218.051 0.7302 225.481 2.13382 233.388C3.53741 241.295 10.2558 246.681 17.1195 245.419C23.0713 244.328 27.18 238.625 27.2773 231.993C34.1203 229.826 42.1904 227.811 51.3529 226.548C61.8746 225.097 71.3104 224.986 79.2546 225.434C82.311 235.248 86.6676 244.485 92.0711 252.957C89.4438 255.016 86.5295 257.043 83.2338 258.931C76.9478 262.549 70.9342 264.773 65.7127 266.195C62.2713 260.445 55.7282 257.686 50.0175 259.948C43.5207 262.535 40.5632 270.696 43.4407 278.174C45.2508 282.867 48.9295 286.192 53.0337 287.363C55.4515 288.064 58.0223 288.014 60.4446 287.053C61.1505 286.767 61.8412 286.408 62.4691 285.98C67.2325 282.856 69.3245 276.284 67.4066 269.966C72.3541 267.449 78.1314 264.967 84.7651 262.943C89.0432 261.646 93.1094 260.71 96.9331 260.024C100.356 264.639 104.134 268.977 108.188 272.988C108.566 273.37 108.961 273.753 109.339 274.11C106.485 280.374 102.209 287.977 95.8096 295.66C89.5395 303.18 83.0554 308.631 77.5968 312.471C72.2339 308.498 65.1302 308.495 60.7192 312.817C55.6782 317.744 56.0506 326.431 61.5509 332.219C67.0194 337.994 75.5672 338.69 80.5923 333.761C84.9708 329.485 85.2655 322.366 81.6623 316.79C85.9769 311.215 91.5933 304.939 98.7408 298.763C106.437 292.134 113.999 287.249 120.588 283.661C129.163 290.017 138.661 295.194 148.816 298.94C148.369 302.839 147.631 307.04 146.443 311.45C143.867 321.056 140.102 328.735 136.696 334.38C130.152 332.965 123.635 335.929 121.345 341.728C118.758 348.314 122.606 356.075 129.944 359.067C137.266 362.058 145.316 359.137 147.935 352.54C150.192 346.812 147.591 340.198 142.032 336.614C143.696 329.781 146.302 321.709 150.367 313.054C152.366 308.834 154.472 304.99 156.622 301.49C164.465 303.745 172.636 305.167 181.091 305.635C182.381 312.376 183.407 319.912 183.848 328.139C184.512 340.378 183.725 351.198 182.467 360.123C176.035 361.307 171.167 366.389 171.092 372.535C171.005 379.635 177.335 385.467 185.268 385.564C193.168 385.661 199.639 379.986 199.726 372.886C199.801 366.764 195.092 361.575 188.723 360.211C187.766 351.058 187.324 340.249 188.078 328.191C188.593 320.057 189.595 312.557 190.827 305.778C199.674 305.544 208.262 304.27 216.478 302.07C217.165 303.304 217.836 304.587 218.49 305.906C222.837 314.604 225.132 322.737 226.346 329.238C220.606 332.53 217.621 339.028 219.609 344.88C221.857 351.594 229.766 354.924 237.253 352.325C244.724 349.716 248.967 342.16 246.703 335.445C244.7 329.487 238.243 326.198 231.589 327.344C228.605 321.988 225.16 313.912 224.058 303.614C223.914 302.338 223.817 301.088 223.768 299.859C232.921 296.763 241.562 292.493 249.529 287.235C254.568 291.508 259.87 296.597 265.127 302.631C273.219 311.907 279.077 321.027 283.293 328.768C278.858 333.691 278.021 340.771 281.648 345.71C285.857 351.388 294.373 352.083 300.705 347.264C307.022 342.448 308.755 333.941 304.578 328.252C300.951 323.347 294.085 322.153 288.207 325.043C281.998 318.49 275.123 310.209 268.527 300.054C264.266 293.49 260.752 287.127 257.872 281.157C261.08 278.59 264.147 275.855 267.088 272.954C271.871 268.201 276.261 263.029 280.16 257.486C287.206 259.578 295.326 262.615 303.923 267.131C312.218 271.469 319.12 276.212 324.669 280.62C322.469 286.892 324.397 293.733 329.627 296.84C335.649 300.441 343.775 297.733 347.787 290.812C351.799 283.878 350.148 275.353 344.126 271.751C338.864 268.61 331.964 270.284 327.655 275.397C321.428 272.9 313.875 269.141 306.075 263.418C297.975 257.48 291.875 251.142 287.472 245.685C290.559 239.968 293.187 233.949 295.307 227.676C298.69 227.836 302.277 228.186 305.973 228.798C315.516 230.378 323.447 233.222 329.542 236.033C328.933 242.75 332.593 248.952 338.495 250.57C345.241 252.422 352.387 247.637 354.462 239.879C356.52 232.119 352.737 224.335 345.975 222.483C340.057 220.851 333.804 224.362 330.967 230.518C324.477 229.897 316.147 228.343 307.078 224.648C303.647 223.237 300.473 221.676 297.588 220.048C299.112 214.23 300.207 208.237 300.809 202.088C306.705 201.677 312.965 201.447 319.557 201.515C331.177 201.623 341.733 202.601 350.991 203.965C352.029 210.454 356.869 215.444 362.852 215.707C369.84 215.992 375.775 209.719 376.081 201.691C376.403 193.663 371.011 186.919 364.038 186.633Z" fill="#FA5652"/>
</svg>
