<svg width="20" height="16" fill="none" xmlns="http://www.w3.org/2000/svg"><path d="M19.892 2.152a8.309 8.309 0 01-1.989 2.05 11.329 11.329 0 01-.454 3.708 11.428 11.428 0 01-1.424 3.044 11.982 11.982 0 01-2.259 2.59c-.876.745-1.931 1.343-3.167 1.793C9.363 15.78 8.04 16 6.633 16c-2.218 0-4.248-.593-6.089-1.78.286.033.606.049.958.049 1.841 0 3.482-.565 4.923-1.694a3.888 3.888 0 01-2.308-.786 3.912 3.912 0 01-1.4-1.964c.27.04.52.061.749.061.352 0 .7-.045 1.043-.135a3.94 3.94 0 01-2.283-1.363A3.871 3.871 0 011.33 5.86V5.81a3.934 3.934 0 001.792.504 3.96 3.96 0 01-1.289-1.412 3.864 3.864 0 01-.479-1.89c0-.721.18-1.388.54-2.002a11.334 11.334 0 003.61 2.934A11.15 11.15 0 0010.07 5.16a4.41 4.41 0 01-.098-.909c0-1.097.384-2.03 1.154-2.799.777-.778 1.714-1.166 2.81-1.166 1.147 0 2.112.417 2.898 1.252A7.775 7.775 0 0019.352.58a3.85 3.85 0 01-1.743 2.186 7.9 7.9 0 002.283-.614z" fill="#035755"/></svg>