<svg width="21" height="18" fill="none" xmlns="http://www.w3.org/2000/svg"><path d="M20.113 4.502c-.082 1.932-1.44 4.596-4.076 7.992-2.725 3.528-5.025 5.292-6.9 5.292-1.162 0-2.144-1.077-2.946-3.23-.36-1.309-.9-3.281-1.62-5.916-.59-2.145-1.232-3.217-1.928-3.217-.147 0-.667.311-1.559.933L.14 5.153c.196-.172.638-.565 1.326-1.179.687-.622 1.22-1.096 1.596-1.424C4.337 1.42 5.324.823 6.019.758c.778-.074 1.404.155 1.879.687.474.524.806 1.355.994 2.492.36 2.35.63 3.876.81 4.58.45 2.038.942 3.057 1.474 3.057.417 0 1.047-.66 1.89-1.977.827-1.318 1.273-2.324 1.338-3.02.107-1.138-.34-1.706-1.338-1.706-.466 0-.961.106-1.485.319.982-3.217 2.86-4.78 5.635-4.69 2.054.065 3.02 1.4 2.897 4.002z" fill="#035755"/></svg>