<svg width="23" height="16" fill="none" xmlns="http://www.w3.org/2000/svg"><path d="M9.581 10.991l5.942-3.07-5.942-3.105v6.175zM11.852.408c1.375 0 2.701.02 3.978.062 1.285.033 2.226.07 2.824.11l.896.05.209.024c.13.008.225.02.282.037.057.008.151.024.282.049.14.025.258.057.356.098.099.041.213.094.344.16.131.065.258.147.38.245.123.09.242.197.357.32.049.049.11.126.184.233.082.098.2.335.356.712.164.376.274.79.331 1.24.066.524.115 1.084.148 1.682.04.589.065 1.051.073 1.387v2.161a25.99 25.99 0 01-.22 3.56c-.058.45-.16.86-.308 1.228-.147.36-.278.61-.392.748l-.172.21a3.357 3.357 0 01-.356.33 2.64 2.64 0 01-.38.234 22.56 22.56 0 01-.345.147c-.098.041-.216.074-.356.098-.13.025-.229.046-.294.062l-.283.037-.196.012c-2.054.155-4.62.233-7.698.233-1.694-.016-3.167-.04-4.42-.073a107.082 107.082 0 01-2.455-.099l-.601-.049-.442-.049a6.174 6.174 0 01-.675-.123 4.084 4.084 0 01-.626-.257 2.486 2.486 0 01-.688-.504 3.5 3.5 0 01-.196-.22c-.074-.107-.193-.349-.356-.725a4.833 4.833 0 01-.32-1.24 30.546 30.546 0 01-.16-1.67 49.13 49.13 0 01-.06-1.4v-2.16a25.991 25.991 0 01.22-3.56c.058-.45.16-.856.307-1.216.148-.368.279-.622.393-.76l.172-.21c.115-.122.233-.229.356-.319.123-.098.25-.18.38-.245.132-.066.246-.119.344-.16.099-.04.213-.073.344-.098.14-.025.238-.041.295-.05a1.48 1.48 0 01.282-.036c.131-.016.2-.025.209-.025C6.209.482 8.775.41 11.852.41z" fill="#F44A45"/></svg>